<?xml version="1.0" standalone="no"?>
<!DOCTYPE svg PUBLIC "-//W3C//DTD SVG 20010904//EN"
 "http://www.w3.org/TR/2001/REC-SVG-20010904/DTD/svg10.dtd">
<svg version="1.0" xmlns="http://www.w3.org/2000/svg"
 width="200.000000pt" height="200.000000pt" viewBox="0 0 200.000000 200.000000"
 preserveAspectRatio="xMidYMid meet">

<g transform="translate(0.000000,200.000000) scale(0.100000,-0.100000)"
fill="#000000" stroke="none">
<path d="M858 1672 l-188 -97 0 -188 0 -187 70 36 70 37 0 108 0 108 120 63
120 63 0 78 c0 42 -1 77 -2 77 -2 0 -87 -44 -190 -98z"/>
<path d="M1138 1492 l-188 -97 0 -182 c0 -101 2 -183 5 -183 7 0 358 181 368
190 4 3 6 88 5 188 l-3 181 -187 -97z"/>
<path d="M650 825 c-11 -13 -11 -19 3 -32 21 -21 49 -9 45 19 -4 28 -30 35
-48 13z"/>
<path d="M190 803 c34 -23 31 -17 111 -210 39 -95 75 -173 79 -173 8 0 20 27
109 245 38 93 56 124 78 137 l28 18 -70 -1 c-50 0 -64 -3 -49 -9 12 -5 25 -13
28 -19 6 -10 -88 -266 -104 -284 -8 -9 -110 244 -110 274 0 11 10 24 23 29 16
6 -2 9 -63 9 -82 1 -84 1 -60 -16z"/>
<path d="M1103 713 c-37 -36 -40 -43 -18 -43 12 0 15 -19 15 -109 0 -122 8
-141 61 -141 35 0 69 16 69 32 0 9 -3 9 -12 0 -7 -7 -22 -12 -35 -12 -33 0
-43 34 -43 141 l0 89 35 0 c19 0 35 5 35 10 0 6 -15 10 -34 10 -31 0 -35 3
-38 28 l-3 28 -32 -33z"/>
<path d="M665 695 c-5 -2 -23 -6 -39 -10 l-30 -6 25 -12 c23 -12 24 -16 24
-117 0 -101 -1 -105 -22 -108 -13 -2 -23 -8 -23 -13 0 -5 34 -9 75 -9 41 0 75
2 75 5 0 3 -11 10 -25 15 -25 9 -25 10 -25 135 0 125 -2 131 -35 120z"/>
<path d="M860 682 c-87 -43 -94 -196 -11 -245 39 -23 99 -21 140 4 40 24 36
36 -5 14 -37 -19 -74 -19 -101 0 -47 33 -54 159 -12 204 25 27 70 27 94 1 23
-25 55 -26 55 -2 0 41 -98 55 -160 24z"/>
<path d="M1341 682 c-68 -36 -89 -122 -49 -193 49 -88 186 -92 242 -7 80 123
-62 270 -193 200z m134 -34 c25 -29 27 -38 23 -96 -4 -55 -8 -68 -32 -88 -79
-69 -169 25 -136 145 20 76 97 97 145 39z"/>
<path d="M1734 665 c-33 -36 -34 -36 -34 -11 0 32 -12 38 -55 30 -39 -7 -46
-19 -15 -27 18 -5 20 -14 20 -107 0 -93 -2 -102 -20 -107 -41 -11 -18 -23 45
-23 63 0 86 12 44 23 -20 5 -21 11 -17 86 6 106 23 133 81 129 36 -3 42 0 42
17 0 14 -8 21 -28 23 -22 3 -36 -5 -63 -33z"/>
<path d="M872 255 c0 -16 2 -22 5 -12 2 9 2 23 0 30 -3 6 -5 -1 -5 -18z"/>
<path d="M1042 255 c0 -16 2 -22 5 -12 2 9 2 23 0 30 -3 6 -5 -1 -5 -18z"/>
<path d="M1108 253 c5 -21 7 -23 10 -9 2 10 0 22 -6 28 -6 6 -7 0 -4 -19z"/>
<path d="M804 250 c2 -16 20 -14 24 2 3 10 2 10 -6 -1 -7 -9 -11 -10 -15 -2
-4 7 -5 8 -3 1z"/>
</g>
</svg>
